<mxfile host="Electron" agent="Mozilla/5.0 (Windows NT 10.0; Win64; x64) AppleWebKit/537.36 (KHTML, like Gecko) draw.io/27.0.9 Chrome/134.0.6998.205 Electron/35.4.0 Safari/537.36" version="27.0.9">
  <diagram name="P치gina-1" id="9qEhcQJC4x0d7D9FkfoQ">
    <mxGraphModel dx="753" dy="513" grid="1" gridSize="10" guides="1" tooltips="1" connect="1" arrows="1" fold="1" page="1" pageScale="1" pageWidth="827" pageHeight="1169" math="0" shadow="0">
      <root>
        <mxCell id="0" />
        <mxCell id="1" parent="0" />
        <mxCell id="7HFt4F-0T1lohmS4j6Xd-3" value="Usuario" style="swimlane;fontStyle=1;align=center;verticalAlign=top;childLayout=stackLayout;horizontal=1;startSize=26;horizontalStack=0;resizeParent=1;resizeParentMax=0;resizeLast=0;collapsible=1;marginBottom=0;whiteSpace=wrap;html=1;" vertex="1" parent="1">
          <mxGeometry x="200" y="160" width="190" height="190" as="geometry" />
        </mxCell>
        <mxCell id="7HFt4F-0T1lohmS4j6Xd-4" value="+nombre: String.&lt;br&gt;        +contrase침a: String.&lt;br&gt;        +rol: int.&lt;br&gt;        +verificar_contrase침a(contrase침a: String): bool." style="text;strokeColor=none;fillColor=none;align=left;verticalAlign=top;spacingLeft=4;spacingRight=4;overflow=hidden;rotatable=0;points=[[0,0.5],[1,0.5]];portConstraint=eastwest;whiteSpace=wrap;html=1;" vertex="1" parent="7HFt4F-0T1lohmS4j6Xd-3">
          <mxGeometry y="26" width="190" height="94" as="geometry" />
        </mxCell>
        <mxCell id="7HFt4F-0T1lohmS4j6Xd-5" value="" style="line;strokeWidth=1;fillColor=none;align=left;verticalAlign=middle;spacingTop=-1;spacingLeft=3;spacingRight=3;rotatable=0;labelPosition=right;points=[];portConstraint=eastwest;strokeColor=inherit;" vertex="1" parent="7HFt4F-0T1lohmS4j6Xd-3">
          <mxGeometry y="120" width="190" height="8" as="geometry" />
        </mxCell>
        <mxCell id="7HFt4F-0T1lohmS4j6Xd-6" value="+ iniciarSesion().&lt;br&gt;+ cerrarSesion().&lt;br&gt;+ editarPerfil()." style="text;strokeColor=none;fillColor=none;align=left;verticalAlign=top;spacingLeft=4;spacingRight=4;overflow=hidden;rotatable=0;points=[[0,0.5],[1,0.5]];portConstraint=eastwest;whiteSpace=wrap;html=1;" vertex="1" parent="7HFt4F-0T1lohmS4j6Xd-3">
          <mxGeometry y="128" width="190" height="62" as="geometry" />
        </mxCell>
        <mxCell id="7HFt4F-0T1lohmS4j6Xd-7" value="Menu" style="swimlane;fontStyle=1;align=center;verticalAlign=top;childLayout=stackLayout;horizontal=1;startSize=26;horizontalStack=0;resizeParent=1;resizeParentMax=0;resizeLast=0;collapsible=1;marginBottom=0;whiteSpace=wrap;html=1;" vertex="1" parent="1">
          <mxGeometry x="460" y="160" width="260" height="140" as="geometry" />
        </mxCell>
        <mxCell id="7HFt4F-0T1lohmS4j6Xd-8" value="-sistema: Sistema.&lt;div&gt;&lt;br/&gt;&lt;/div&gt;" style="text;strokeColor=none;fillColor=none;align=left;verticalAlign=top;spacingLeft=4;spacingRight=4;overflow=hidden;rotatable=0;points=[[0,0.5],[1,0.5]];portConstraint=eastwest;whiteSpace=wrap;html=1;" vertex="1" parent="7HFt4F-0T1lohmS4j6Xd-7">
          <mxGeometry y="26" width="260" height="34" as="geometry" />
        </mxCell>
        <mxCell id="7HFt4F-0T1lohmS4j6Xd-9" value="" style="line;strokeWidth=1;fillColor=none;align=left;verticalAlign=middle;spacingTop=-1;spacingLeft=3;spacingRight=3;rotatable=0;labelPosition=right;points=[];portConstraint=eastwest;strokeColor=inherit;" vertex="1" parent="7HFt4F-0T1lohmS4j6Xd-7">
          <mxGeometry y="60" width="260" height="8" as="geometry" />
        </mxCell>
        <mxCell id="7HFt4F-0T1lohmS4j6Xd-10" value="+mostrar_menu_principal().&lt;br&gt;+mostrar_menu_administrador().&lt;div&gt;+mostrar_menu_usuario(nombre_usuario: String).&lt;/div&gt;" style="text;strokeColor=none;fillColor=none;align=left;verticalAlign=top;spacingLeft=4;spacingRight=4;overflow=hidden;rotatable=0;points=[[0,0.5],[1,0.5]];portConstraint=eastwest;whiteSpace=wrap;html=1;" vertex="1" parent="7HFt4F-0T1lohmS4j6Xd-7">
          <mxGeometry y="68" width="260" height="72" as="geometry" />
        </mxCell>
        <mxCell id="7HFt4F-0T1lohmS4j6Xd-11" value="Sistema" style="swimlane;fontStyle=1;align=center;verticalAlign=top;childLayout=stackLayout;horizontal=1;startSize=26;horizontalStack=0;resizeParent=1;resizeParentMax=0;resizeLast=0;collapsible=1;marginBottom=0;whiteSpace=wrap;html=1;" vertex="1" parent="1">
          <mxGeometry x="460" y="405" width="260" height="180" as="geometry" />
        </mxCell>
        <mxCell id="7HFt4F-0T1lohmS4j6Xd-12" value="- usuarios: String." style="text;strokeColor=none;fillColor=none;align=left;verticalAlign=top;spacingLeft=4;spacingRight=4;overflow=hidden;rotatable=0;points=[[0,0.5],[1,0.5]];portConstraint=eastwest;whiteSpace=wrap;html=1;" vertex="1" parent="7HFt4F-0T1lohmS4j6Xd-11">
          <mxGeometry y="26" width="260" height="26" as="geometry" />
        </mxCell>
        <mxCell id="7HFt4F-0T1lohmS4j6Xd-13" value="" style="line;strokeWidth=1;fillColor=none;align=left;verticalAlign=middle;spacingTop=-1;spacingLeft=3;spacingRight=3;rotatable=0;labelPosition=right;points=[];portConstraint=eastwest;strokeColor=inherit;" vertex="1" parent="7HFt4F-0T1lohmS4j6Xd-11">
          <mxGeometry y="52" width="260" height="8" as="geometry" />
        </mxCell>
        <mxCell id="7HFt4F-0T1lohmS4j6Xd-14" value="+ registrar_usuario().&lt;div&gt;+ iniciar_sesion().&lt;/div&gt;&lt;div&gt;+ ver_lista_usuarios().&lt;/div&gt;&lt;div&gt;+ cambiar_rol_usuario().&lt;/div&gt;&lt;div&gt;+ eliminar_usuario().&lt;/div&gt;&lt;div&gt;+ ver_datos_usuario(nombre_usuario: String).&lt;/div&gt;&lt;div&gt;- obtener_rol()&lt;/div&gt;" style="text;strokeColor=none;fillColor=none;align=left;verticalAlign=top;spacingLeft=4;spacingRight=4;overflow=hidden;rotatable=0;points=[[0,0.5],[1,0.5]];portConstraint=eastwest;whiteSpace=wrap;html=1;" vertex="1" parent="7HFt4F-0T1lohmS4j6Xd-11">
          <mxGeometry y="60" width="260" height="120" as="geometry" />
        </mxCell>
        <mxCell id="7HFt4F-0T1lohmS4j6Xd-23" value="" style="endArrow=open;html=1;endSize=12;startArrow=diamondThin;startSize=14;startFill=0;edgeStyle=orthogonalEdgeStyle;align=left;verticalAlign=bottom;rounded=0;exitX=0.342;exitY=1.069;exitDx=0;exitDy=0;exitPerimeter=0;" edge="1" parent="1">
          <mxGeometry x="-1" y="3" relative="1" as="geometry">
            <mxPoint x="720.0000000000001" y="239.99799999999996" as="sourcePoint" />
            <mxPoint x="730" y="520" as="targetPoint" />
            <Array as="points">
              <mxPoint x="730" y="240" />
              <mxPoint x="730" y="241" />
              <mxPoint x="761" y="241" />
              <mxPoint x="761" y="520" />
            </Array>
          </mxGeometry>
        </mxCell>
        <mxCell id="7HFt4F-0T1lohmS4j6Xd-24" value="Utiliza." style="edgeLabel;html=1;align=center;verticalAlign=middle;resizable=0;points=[];" vertex="1" connectable="0" parent="7HFt4F-0T1lohmS4j6Xd-23">
          <mxGeometry x="0.017" y="5" relative="1" as="geometry">
            <mxPoint as="offset" />
          </mxGeometry>
        </mxCell>
        <mxCell id="7HFt4F-0T1lohmS4j6Xd-26" value="Gestiona." style="endArrow=open;endFill=1;endSize=12;html=1;rounded=0;" edge="1" parent="1">
          <mxGeometry width="160" relative="1" as="geometry">
            <mxPoint x="450" y="520" as="sourcePoint" />
            <mxPoint x="280" y="360" as="targetPoint" />
            <Array as="points">
              <mxPoint x="280" y="520" />
            </Array>
          </mxGeometry>
        </mxCell>
      </root>
    </mxGraphModel>
  </diagram>
</mxfile>
